<?xml version="1.0" standalone="no"?><!DOCTYPE svg PUBLIC "-//W3C//DTD SVG 1.1//EN" "http://www.w3.org/Graphics/SVG/1.1/DTD/svg11.dtd"><svg class="icon" height="512" viewBox="0 0 1024 1024" version="1.1" xmlns="http://www.w3.org/2000/svg"><path d="M960.984615 39.384615H655.753846c-19.692308 0-25.6 17.723077-9.846154 33.476923l96.492308 96.492308-177.230769 177.230769c-9.846154 9.846154-9.846154 25.6 0 37.415385l72.861538 72.861538c9.846154 9.846154 25.6 9.846154 37.415385 0l179.2-179.2 96.492308 96.492308c15.753846 15.753846 33.476923 9.846154 33.476923-9.846154V61.046154c0-11.815385-11.815385-21.661538-23.63077-21.661539zM68.923077 984.615385h303.261538c19.692308 0 25.6-21.661538 9.846154-37.415385l-96.492307-98.461538 177.230769-179.2c9.846154-9.846154 9.846154-27.569231 0-37.415385l-72.861539-72.861539c-9.846154-9.846154-25.6-9.846154-37.415384 0l-177.23077 177.23077-98.461538-96.492308C59.076923 624.246154 39.384615 630.153846 39.384615 649.846154v303.261538c0 13.784615 15.753846 31.507692 29.538462 31.507693z" /></svg>